<?xml version="1.0" encoding="utf-8"?>
<!-- Generator: Adobe Illustrator 21.1.0, SVG Export Plug-In . SVG Version: 6.00 Build 0)  -->
<svg version="1.1" id="Layer_1" xmlns="http://www.w3.org/2000/svg" xmlns:xlink="http://www.w3.org/1999/xlink" x="0px" y="0px"
	 viewBox="0 0 246.5 246.5" style="enable-background:new 0 0 246.5 246.5;" xml:space="preserve">
<style type="text/css">
	.st0{fill:#00B7B3;}
</style>
<g>
	<path class="st0" d="M7.6,110c1,0,6.2-0.1,6.9-0.2c0.6-0.1,0.8,0,1-0.9c0.1-1.1,0.1-2.2,0-3.3c0-1.2,0.1-6.8,0.1-8.3
		c0-1.5-0.7-1.9,0-1.9c0.2,0,0.3-0.1,0.5-0.2l1.3-0.2c1.2,0.1,2.5,0.5,2.9,1.3c0.3,0.7,0.6,1.5,0.7,2.3c0.3,1,0.4,2.1,0.4,3.1
		c0.2,2.3,0.8,4.5,1.5,6.7c0.5,0.9,0.3,1.2,0.9,1.5c1.1,0.2,2.3,0.3,3.4,0.2c0.9,0,3.5-0.3,4.3-0.3c0.8,0,2.2-0.2,2.9-0.2h1.6
		c-0.5-0.7-0.9-1.6-1.1-2.4c-0.3-1.3-0.7-2.6-1.2-3.9c-0.6-1.4-1.1-2.9-1.5-4.4c-0.4-1.5-2.2-6-3.8-7.1c-0.7-0.5-1.4-1-2-1.6
		c1.3-0.3,2.5-1,3.5-1.9c1.6-1.9,2.6-2.7,3.1-5.5c0.4-2.1,0.3-4.3-0.2-6.3c-0.7-1.7-1.7-3.3-3-4.7c-1-0.9-3.2-2.1-8-3.3
		c-4-1-8.2-1-12.2,0c-1.9,0.5-3.9,1.1-5.7,1.9v1.2c0,0.6-0.1,5.1-0.1,6.1c0.1,1,0,6.6,0,7.8c0,1.2,0.1,3.9,0.3,8.8
		c0.1,5,0,9.9,0,11.5s-0.3,3.8,0.1,4C5.3,110.1,6.4,110.2,7.6,110 M15.6,83.2c-0.1-1,0-3.2,0-3.7s0.2-0.7,1-0.7s3.5-0.4,4.6,0.5
		c1.2,0.9,2.2,1.6,2,3.3c0,1.9-1.3,3.5-3,4.1c-2,0.5-4,0.4-4.6-0.3C15.5,85.3,15.5,84.2,15.6,83.2"/>
	<path class="st0" d="M41.8,109.8c0.7,0,1.7,0.2,2.9,0.2c1.2,0,4.7,0.1,6.6,0c1,0,4.1,0.1,5,0.1H63c0.9,0.1,1.8,0.1,2.7,0
		c0.3-0.1,0.8-0.1,0.7-0.7c-0.1-0.6,0-2.4-0.1-3.4c0-1,0-1.9,0.1-2.9v-2.5c0-0.5,0.2-1.4-0.3-1.8c-0.5-0.4-1.9-0.3-3.8-0.3h-5.6
		c-1,0-2.7,0.5-3.1,0.1c-0.6-0.7,0-2.1,0-3.1s0-1.2,0.7-1.3c0.7-0.1,2.4,0.2,3.3,0.2h4.7c0.8,0.1,1.7,0,2.4-0.4
		c0.4-0.3,0.7-0.8,0.6-1.3c0-0.6-0.2-3.2-0.3-4.4c0-1.2-0.1-1.6-0.7-1.8c-0.6-0.1-1.2-0.1-1.8,0c-0.6,0-4.2,0-5,0.1
		c-0.9,0.1-2.9,0.1-3.3,0.1s-0.9,0-0.9-0.5v-1.5c0-0.6,0.1-0.7,0.7-0.9c2.6-0.2,5.1-0.3,7.7-0.2c3.2,0,4.1-1,4.1-2
		c0-1,0.3-2.6,0.3-7.1s-0.2-5.1-1.9-5.1H56h-9.5c-1.3,0-3.4-0.3-4.5-0.3s-1.7,0.4-1.7,1c0,0.7-0.1,1.6-0.1,3.5
		c0,1.9,0.1,4.7,0.1,5.9s-0.1,3.7-0.1,5.9c0,0.6,0,2.6-0.1,4.5c-0.1,1.9-0.2,3.5-0.1,6.2c0,2.7,0,6.8,0,10.1S41.1,109.7,41.8,109.8"
		/>
	<path class="st0" d="M73.7,109.5c0.8,0,1.7,0.2,2.9,0.2h6.7c1.8,0,2.5,0.2,2.5-0.9c0-1.1-0.5-2.8-0.5-4.6c0.2-2.1,0.3-4.2,0.1-6.2
		c0-0.9,0-1.6,0-2.6s0.2-1.3,0.9-1.3c0.7-0.1,2.4,0.2,3.3,0.2h4.2c0.8,0.1,1.6,0,2.4-0.4c0.4-0.3,0.7-0.8,0.6-1.3
		c0-0.6-0.2-3.2-0.3-4.4c0-1.3-0.1-1.6-0.7-1.8s-1.2,0-1.8,0c-0.6,0-3.6,0-4.6,0.1c-0.9,0.1-2.9,0.1-3.3,0.1s-0.9,0-0.9-0.5v-1.6
		c0-0.6,0.1-0.7,0.7-0.9c2.4-0.2,4.8-0.3,7.2-0.1c3.2,0,4.1-1,4.1-2c0-1.1,0.3-2.8,0.3-7.3c0-4.5-0.2-5.1-1.9-5.1H88
		c-1.3,0-6.3,0.1-9.5,0c-1.3,0-3.4-0.3-4.5-0.3c-1.1,0-1.7,0.4-1.7,1s-0.1,1.6-0.1,3.5c0,1.9,0.1,5,0.1,6.1c0,1.1-0.1,3.7-0.1,5.9
		c0,0.6,0,2.7-0.1,4.5c-0.1,1.8-0.1,3.6-0.1,6.2s0,6.8-0.1,10.1c-0.1,3.3,1.1,3.5,1.9,3.5"/>
	<path class="st0" d="M136.8,77c0-1.2,0.1-7.2,0.1-7.9c0-0.7-1-0.7-1-0.7c-0.6,0.1-1.2,0.1-1.8,0c-0.9-0.1-3.5-0.1-4.6-0.1
		c-1,0-2.9,0.1-4.2,0.1c-1.3,0-1.2,0.6-1,1.3c0.1,0.8-0.1,3,0.1,4.1c0.2,1.1,0,6.4,0,7.6c0,1.2,0,5.5,0.1,7c0.2,1.8,0.1,3.7-0.1,5.5
		c-0.4,1-1.1,2-1.8,2.8c-0.9,0.7-2,1-3.2,0.8c-1.3-0.2-2.4-1-3-2.1c-0.4-0.8-0.5-1.7-0.5-2.5c0-0.6-0.1-1.8-0.1-4.2s0.2-4.6,0.2-5.8
		s-0.1-5-0.1-5.7c0-0.7,0.3-2.8,0.3-4S116,69.3,116,69c0-0.3-0.8-0.3-1.6-0.5c-1.2-0.1-2.4-0.1-3.6-0.1c-1,0-3.1,0.2-3.7,0.3H104
		c-0.8,0-0.8,1-0.8,1.7c0,0.7,0,1.5-0.1,2.2c-0.1,0.6,0,4.1,0,5.9c0,2.6-0.2,3.9-0.2,5.5c0,1.6-0.1,3.7-0.1,7.2
		c0,3.1,0.4,6.2,1.2,9.2c0.7,2.9,3.7,5.4,5.8,7.4c2,2.1,6.2,2.5,11,2.4c4.8-0.1,7.7-2.7,9.6-4.2c1.7-1.5,3.1-3.2,4-5.3
		c1-1.5,1.7-3.2,2.2-5c0.2-2.4,0.3-4.7,0.2-7.1c0-1,0.1-0.3,0.1-2.4c-0.1-0.6,0-1.3,0.2-1.9c0.1-0.9,0.1-1.8,0-2.8
		C137,80.7,136.8,78.2,136.8,77"/>
	<path class="st0" d="M143.6,101.4c1.1,2.1,2.7,3.8,4.6,5.1c2.1,1.4,4.3,2.4,6.8,3c3.2,0.5,6.5,0.7,9.8,0.5c3.5-0.1,5.4,0.4,9.1-2.5
		c1.3-0.9,2.2-1.3,2.1-4.3s-0.2-1.8-0.2-3.3v-4.7c0-1.3,0.2-2.7,0.1-4.8c0-2.1-0.2-2.4-0.2-3.2c0-0.8,0.3-1.8,0.3-2.4
		s-0.1-1.1-3-1.1h-4.4c-0.6,0-1.6-0.1-2.7-0.1h-4.3c-0.9,0-2.1-0.2-2.2,0.4c-0.4,0.8-0.5,1.8-0.2,2.7c0.3,1.7-0.2,2-0.2,3.1
		s0.2,2,0.2,3.1s-0.4,1.7,0,1.7c0.7,0.1,1.5,0.2,2.2,0.2c1.2,0,2.3-0.2,3.3-0.2s0.7,0.1,0.7,0.6c0.1,1,0.1,1.9-0.1,2.9
		c-0.8,1-2.7,1-3.7,1c-1-0.1-2-0.3-3-0.7c-1.7-0.5-3.5-3.6-4-4.8c-0.3-1.9-0.4-3.9-0.2-5.8c0-1.4,0.3-2.7,1-3.9
		c0.7-1.3,1.6-2.5,2.7-3.6c1.4-1.1,3.2-1.7,5-1.6c1.8,0.2,4,0.4,5.4,1.6c0.8,0.6,1.7,0.9,2.7,1c0.5-0.1,1.5-4.3,2.1-6
		c0.6-1.7,0.9-3.4,1-3.8c0.1-0.4,0.5-1.8-0.5-2c-1.6-0.3-3.3-0.7-4.8-1.3c-2.7-0.8-5.5-1.1-8.3-0.9c-1.6,0.1-3.1,0.3-4.6,0.8
		c-2.2,0.8-4.4,1.9-6.5,3c-2.1,1.2-3.1,2.9-4.6,4.6c-1.5,2.1-2.5,4.4-3.1,6.9c-0.6,3-0.7,6.1-0.5,9.2
		C141.5,95.1,142.3,98.3,143.6,101.4"/>
	<path class="st0" d="M192.7,109.1c1,0,4.1,0.1,5,0.1h6.7c0.9,0.1,1.8,0.1,2.7,0c0.3-0.1,0.8-0.1,0.7-0.7s0-2.4-0.1-3.4
		c0-1,0-1.9,0.1-2.9v-2.4c0-0.5,0.2-1.4-0.3-1.8c-0.5-0.4-2-0.3-3.9-0.3H198c-1,0-2.7,0.5-3.1,0.1c-0.6-0.7,0-2.1,0-3.1
		c0-1,0-1.2,0.7-1.3c0.7-0.1,2.4,0.2,3.3,0.2h4.7c0.8,0.1,1.7,0,2.4-0.4c0.4-0.3,0.7-0.8,0.6-1.3c0-0.6-0.2-3.2-0.3-4.4
		c0-1.2-0.1-1.6-0.7-1.8c-0.6-0.1-1.2-0.1-1.8,0c-0.6,0-4.2,0-5,0.1c-0.9,0.1-2.9,0.1-3.3,0.1c-0.5,0-0.9,0-0.9-0.5v-1.5
		c0-0.6,0.1-0.7,0.7-0.9c2.6-0.2,5.1-0.3,7.7-0.2c3.2,0,4.1-1,4.1-2c0-1,0.3-2.7,0.3-7.2c0-4.5-0.2-5.1-1.9-5.1h-8.3h-9.5
		c-1.3,0-3.4-0.3-4.5-0.3s-1.7,0.3-1.7,1c0,0.7-0.1,1.6-0.1,3.5c0,1.9,0.1,4.7,0.1,5.9c0,1.2-0.1,3.7-0.1,5.9c0,0.6,0,2.6-0.1,4.5
		c-0.1,1.9-0.1,3.5-0.1,6.2c0,2.7,0,6.8,0,10.1s1.1,3.5,1.9,3.5c0.8,0,1.7,0.2,2.9,0.2C187.3,109.1,190.8,109.2,192.7,109.1"/>
	<path class="st0" d="M215.1,108.9c0.7,0,1.7,0.2,2.9,0.2c1.2,0,4.7,0.1,6.6,0c1,0,4.1,0.1,5,0.1h6.7c0.9,0.1,1.8,0.1,2.7,0
		c0.3-0.1,0.8-0.1,0.7-0.7s0-2.4-0.1-3.4c0-1,0-1.9,0.1-2.9v-2.5c0-0.5,0.2-1.4-0.3-1.8c-0.5-0.4-2-0.3-3.9-0.3h-5.6
		c-1,0-2.7,0.5-3.1,0.1c-0.6-0.7,0-2.1,0-3.1c0-1,0-1.2,0.7-1.3s2.4,0.2,3.3,0.2h4.7c0.8,0.1,1.7,0,2.4-0.4c0.4-0.3,0.7-0.8,0.6-1.3
		c0-0.6-0.2-3.2-0.3-4.4c0-1.2-0.1-1.6-0.7-1.8c-0.6-0.1-1.2-0.1-1.8,0c-0.6,0-4.2,0-5,0.1c-0.9,0.1-2.9,0.1-3.3,0.1
		c-0.5,0-0.9,0-0.9-0.5v-1.5c0-0.6,0.1-0.7,0.7-0.9c2.6-0.2,5.1-0.3,7.7-0.2c3.2,0,4.1-1,4.1-2s0.3-2.7,0.3-7.2
		c0-4.5-0.2-5.1-1.9-5.1h-8.3h-9.5c-1.3,0-3.4-0.3-4.5-0.3s-1.7,0.4-1.7,1c0,0.7-0.1,1.6-0.1,3.5c0,1.9,0.1,4.7,0.1,5.9
		c0,1.2-0.1,3.7-0.1,5.9c0,0.6,0,2.6-0.1,4.5c-0.1,1.9-0.2,3.5-0.1,6.2s0,6.8,0,10.1s1.1,3.5,1.9,3.5"/>
	<path class="st0" d="M77.6,140.6c0.9-3.1,1.9-6.7,3-11.1c1.1-4.4,1.9-7.9,2.5-10.4s1-3,0.3-3c-0.7-0.1-2.1,0.1-3,0.1
		c-0.9,0-2.8-0.1-5.4,0c-2.6,0.1-5.8,0-7.5,0s-2,0.2-2,0.9s-0.7,2.1-0.9,4s-0.9,4.4-1.5,7.8c-0.6,3.4-2.1,8.4-2.6,10.8
		c-0.4,2.4-0.9,2.5-1.3,0.8c-0.5-2.1-0.7-4.1-0.7-6.2c-0.2-3.2-0.8-4.5-0.8-5.6c0-1.1-0.4-2.8-0.6-5.9c-0.3-3.1-0.6-5.6-0.6-6.1
		c0-0.5-2.4,0-3-0.2s-1.6,0-3,0H45c-0.9,0-5.8-0.3-7.6-0.3s-2.5,0-2.7,0.5s-1.4,7-2,9.6c-0.5,2.6-1.3,5.8-2.1,8.8s-1.4,6.3-1.6,7.4
		s-0.3,2.7-0.7,1.6c-0.3-1.1-0.5-6.1-1.1-8.9c-0.6-2.9-0.5-5-0.9-7.2c-0.2-1-0.3-2-0.3-3c-0.2-1.6-1.1-6.9-1.3-7.7
		c-0.3-0.9-1.8-0.7-2.5-0.7h-3.5h-6.9H6.9c-0.7,0-2.1,0-2.1,0.4s0.5,1.6,1.7,5.5c1.1,3.8,1.9,6.8,2.4,8.7c1.1,3.8,2.5,9.7,3,12.3
		c0.5,2.6,1.8,6.9,2.7,11.3c0.9,4.3,2,7.6,2.8,11.5c0.8,3.9,1.3,7.5,1.9,9.9c0.6,2.4,0.8,2,2.2,2.1s5.7,0.4,7,0.4
		c1.2,0,7.3-0.3,8.4-0.3c1.1,0,0.7-1.3,0.8-2.2c0.4-1.8,0.9-3.6,1.5-5.4c0.6-1.8,1-3.7,1.2-5.6c0.2-0.9,0.6-2.4,1.1-4.5
		c0.5-2.2,0.8-3.6,1.3-5.2c0.5-1.6,0.5-2.5,0.8-4.3s0.8-1.3,1.1,0.1c0.3,1.4,0.6,2.6,0.9,4.3c0.3,1.7,0.6,3.4,1.1,6.3
		c0.4,3,0.5,4.6,0.9,6.7c0.3,2.1,0.8,4.3,1.1,6.8c0.3,2.4,0.2,2.8,1.2,2.8c1.2-0.1,2.4-0.1,3.6,0c0.7,0.1,2,0.1,3.5,0.1h6.2
		c3.4,0,3.2,0,4-2.4c0.8-2.4,0.9-2.5,2-6.2c1.1-3.7,1.8-6.3,2.9-10.2s2-6.4,3.3-10.4C76.6,145.1,76.8,143.7,77.6,140.6"/>
	<path class="st0" d="M131.9,170.9c-1.2-3.1-3.3-9-4.5-12.8s-2.2-5.8-3.7-10.1s-2.7-7.1-5-14.2c-2.4-7.1-3.7-11.3-4.5-14.1
		c-0.8-2.9-1.9-2-3.1-2h-5.6c-0.8,0-6.4-0.1-8.7-0.3c-2.2-0.2-2.1-0.3-3,2.3c-1.4,3.6-2.6,7.3-3.5,11.1c-0.3,2-3.3,10.2-4.7,14.4
		s-4.1,9.8-4.7,13.1c-0.6,3.2-4.4,13.4-5.2,15.5c-0.9,2.1-1.9,4.9-2,5.4s2.3,0.2,4.2,0.1h5.9c1.3,0,3.2-0.1,5-0.1
		c1.8,0,3.7,0.4,4.1-0.2c0.7-1.9,1.3-3.9,1.6-5.9c0.7-2.9,1.6-6,1.9-6.7c0.2-0.7,0.8-1.2,1.5-1.5c2.4-0.2,4.7-0.3,7.1-0.2
		c4.2,0,5.1,0.1,5.6,0.7c0.5,1.2,0.9,2.4,1.2,3.6c0.5,1.8,1.1,3.7,1.9,6.1s0.5,3.6,1.8,3.6c1.3,0.2,2.5,0.2,3.8,0.1
		c2.1,0,5.9,0,10.8,0.2c4.9,0.2,5.2-0.2,5-0.7C134.8,177.6,133,174.1,131.9,170.9 M95.1,164.1c-4-3-6.3-7.6-6.3-12.6
		c-0.1-8.5,6.7-15.4,15.1-15.5c6.7-0.1,12.7,4.2,14.8,10.6c-5.7,0-7.1,0.3-7.1,1.1s1.9,0.6,2,1.3c0,1.3-11.1,1.1-12.2,3.6
		c-1.1,2.5,6.5,1.9,6.4,5C107.5,160.8,98.9,160.7,95.1,164.1 M117,160c-0.1-0.7-0.3-1.4-0.7-2c-1.4-2.3-7.5-3.1-7.6-5
		c-0.1-2.4,7.7-1.5,7.9-3.2c0.2-1.1-3.5-1.2-3.5-2.1c0-0.8,3.2-0.7,5.6-0.7C120,151.3,119.4,156.1,117,160"/>
	<path class="st0" d="M178.8,163.8c0-0.7,0.3-2.2-0.4-2.8c-0.7-0.6-3-0.2-5.9-0.1h-7.2c-1.3,0-3.7,0.4-4.3-0.3c-0.9-1,0-2.9-0.1-4.4
		c-0.3-2.2-0.5-4.5-0.5-6.7c0.2-1.8,0-7.9,0.1-9.3c0.1-1.4,0.2-10.9,0-12.3s0.1-7.2,0.1-8.3c0-1.1,0.2-3.2-2.4-3.2
		c-2.5,0-4,0.7-8.3,0.4c-2.1-0.2-5-0.4-6.8-0.4c-1.7,0-2.6,0.6-2.6,1.6c0,1-0.2,2.4-0.1,5.4c0,2.9,0.5,7.2,0.5,9
		c0,1.7-0.7,3.8-0.7,7.1c0,1,0.3,6.2,0,9s-0.1,4.9-0.1,8.8c0,3.9,0.7,10.7,0.5,15.7c-0.2,5-0.2,4.9,0.9,4.9c1.1,0,3.8,0.1,5.6,0.1
		s7.2,0.2,10,0c1.5-0.1,6.1,0.1,7.6,0.1h8.9c1.4,0.1,2.7,0.1,4.1,0c0.4-0.1,1.3-0.1,1.1-1c-0.2-0.9,0-3.7-0.2-5.2
		c-0.2-1.6,0.2-3.1,0.1-4.3L178.8,163.8z"/>
	<path class="st0" d="M241.1,175.8c-1.3-1.6-5.2-7-6.9-9.6c-1.8-2.6-6.9-9.3-8.3-11.3c-1.4-2.1-4-5.3-5.2-7
		c-0.9-1.3-1.5-2.8-1.8-4.3c0-0.6,1.2-0.8,2.4-2.2c1.2-1.4,4.8-6.3,5.7-7.3s3.4-5,4.8-6.7c1.4-1.7,5.3-7.1,6.3-8.3s2.4-2.4,1.9-3
		c-0.5-0.5-1.2,0-2.3,0c-1,0-7.9-0.1-9.1-0.1c-1.2,0-11,0.2-12.2,0.2c-1.2,0,0,0-0.5,0.7s-1.9,2.3-2.8,3.3c-1.2,1.5-1.6,3-2.8,5
		c-1.5,2.3-3,4.6-4.7,6.8c-0.9,1.2-0.7,0.5-0.5-1.6c0.2-2.1,0.1-4.9,0.1-6.1c0.1-1.7,0.1-3.4,0-5c-0.2-1.3,0-2.6-0.9-2.6
		c-0.9,0-3.7-0.1-4.8-0.1H191c-1.2,0-5.1,0-5.4,0.5c-0.2,0.5,0,2.4,0,3v6.5c0,2.1-0.3,8.3-0.4,11.7c0,1.9,0,7.9,0,10.3v11.9
		c0,1.6-0.3,14.1-0.3,16c0,1.9,1.5,1.2,2.5,1.2c1,0,11.8,0.1,14.3,0.1c2.5,0,1.9-0.2,1.9-1.1c0-0.9,0.1-5.6,0.1-6.5s0.1-7,0.1-8
		c0-1.1-0.3-1.3,0-2c0.3-0.7,1.2-0.3,1.9,0.5s3.7,6.5,4.5,7.9c1.6,2.2,3,4.5,4.2,6.9c0.9,2.1,1.2,2.2,2.3,2.2
		c1.2,0.2,2.4,0.3,3.6,0.3c1-0.2,11.6,0,13.9-0.1s7.4,0,8-0.7C243.1,176.7,242.4,177.4,241.1,175.8"/>
	<rect x="4.4" y="52.3" class="st0" width="237.8" height="7.6"/>
	<rect x="4.4" y="186.6" class="st0" width="237.8" height="7.6"/>
</g>
</svg>
